<?xml version="1.0" standalone="no"?>
<!DOCTYPE svg PUBLIC "-//W3C//DTD SVG 20010904//EN"
 "http://www.w3.org/TR/2001/REC-SVG-20010904/DTD/svg10.dtd">
<svg version="1.0" xmlns="http://www.w3.org/2000/svg"
 width="4360.000000pt" height="4360.000000pt" viewBox="0 0 4360.000000 4360.000000"
 preserveAspectRatio="xMidYMid meet">
<metadata>
Created by potrace 1.11, written by Peter Selinger 2001-2013
</metadata>
<g transform="translate(0.000000,4360.000000) scale(0.100000,-0.100000)"
fill="#000000" stroke="none">
<path d="M19473 34890 c-7844 -3 -14266 -9 -14270 -14 -6 -5 -23 -3066 -17
-3083 0 -2 306 -50 680 -107 595 -92 1288 -200 2139 -335 1007 -159 3054 -497
4065 -671 4152 -717 7438 -1385 10270 -2090 346 -87 791 -200 843 -216 14 -4
17 -18 17 -79 0 -67 -2 -73 -22 -78 -422 -91 -799 -159 -1428 -257 -858 -134
-1291 -219 -1725 -339 -77 -22 -214 -55 -305 -75 -728 -157 -1263 -398 -1541
-693 -169 -179 -242 -354 -243 -578 0 -186 44 -347 156 -567 372 -732 1430
-1643 3082 -2652 3271 -1999 8524 -4147 12781 -5226 1416 -359 2570 -564 3660
-652 179 -14 1038 -18 1052 -5 4 5 11 2001 16 4435 4 2435 11 6418 15 8852 4
2434 6 4428 4 4433 -2 4 -1120 6 -2485 5 -1365 -1 -8900 -4 -16744 -8z"/>
<path d="M5166 29998 c-3 -134 -10 -1080 -16 -2103 -10 -1686 -44 -7144 -70
-11065 -5 -844 -15 -2289 -21 -3210 -6 -921 -14 -2177 -18 -2790 -4 -613 -6
-1116 -6 -1118 1 -1 4870 -1 10820 0 l10819 3 -634 344 c-6735 3654 -9238
5093 -11610 6674 -1369 913 -2673 1858 -5165 3746 -666 504 -937 733 -1266
1068 -482 491 -757 925 -851 1344 -30 136 -33 412 -6 526 40 162 103 302 202
448 72 106 293 333 412 423 675 508 1800 901 3584 1251 369 72 728 137 1390
251 1212 209 1522 271 1840 367 219 66 362 154 391 240 54 164 -196 431 -691
735 -1258 773 -4100 1811 -7276 2657 -566 151 -1773 451 -1812 451 -6 0 -12
-93 -16 -242z"/>
</g>
</svg>
